<?xml version="1.0" encoding="UTF-8" standalone="no"?><!DOCTYPE svg PUBLIC "-//W3C//DTD SVG 1.1//EN" "http://www.w3.org/Graphics/SVG/1.1/DTD/svg11.dtd"><svg width="100%" height="100%" viewBox="0 0 137 43" version="1.1" xmlns="http://www.w3.org/2000/svg" xmlns:xlink="http://www.w3.org/1999/xlink" xml:space="preserve" xmlns:serif="http://www.serif.com/" style="fill-rule:evenodd;clip-rule:evenodd;stroke-linejoin:round;stroke-miterlimit:2;"><path d="M53.626,26.656c-1.574,0.266 -3.192,0.707 -4.812,1.312c-1.324,0.495 -2.773,1.089 -4.32,1.769c0.68,-0.859 1.365,-1.717 2.045,-2.564c0.962,-1.198 1.967,-2.287 2.99,-3.237c0.58,-0.544 1.225,-1.097 1.919,-1.645c0.637,-0.503 1.181,-0.758 1.618,-0.758c0.154,-0 0.386,0.046 0.62,0.441c0.143,0.243 0.313,0.775 0.313,1.934c-0,0.496 -0.036,0.992 -0.107,1.475c-0.062,0.415 -0.151,0.843 -0.266,1.273m-12.207,11.496c-0.68,-0 -1.241,-0.117 -1.668,-0.348c-0.369,-0.197 -0.541,-0.454 -0.541,-0.807c-0,-0.364 0.219,-0.836 0.651,-1.401c0.456,-0.596 1.213,-1.261 2.253,-1.978c1.668,-1.161 3.498,-2.108 5.44,-2.816c1.736,-0.633 3.533,-1.179 5.351,-1.627c-0.65,1.33 -1.578,2.728 -2.765,4.165c-1.368,1.656 -3.028,2.969 -4.93,3.902c-0.679,0.321 -1.345,0.556 -1.979,0.696c-0.641,0.142 -1.25,0.214 -1.812,0.214m16.695,-9.58c1.062,-0.177 1.285,-0.704 1.285,-1.114c-0,-0.318 -0.135,-0.607 -0.391,-0.838c-0.25,-0.224 -0.551,-0.337 -0.895,-0.337l-1.109,-0c-0.265,-0 -0.488,0.005 -0.671,0.015c0.017,-0.193 0.031,-0.382 0.042,-0.568c0.019,-0.323 0.029,-0.657 0.029,-0.99c-0,-1.756 -0.278,-3.103 -0.827,-4.005c-0.582,-0.956 -1.409,-1.44 -2.456,-1.44c-1.512,-0 -3.241,0.975 -5.289,2.984c-1.258,1.258 -2.516,2.667 -3.741,4.188c-0.61,0.759 -1.178,1.49 -1.7,2.188c0.824,-2.216 1.773,-4.483 2.833,-6.766c1.429,-3.078 3.009,-6.043 4.696,-8.812c1.681,-2.76 3.387,-5.143 5.069,-7.081l0.035,-0.048c0.143,-0.238 0.215,-0.465 0.215,-0.675c-0,-0.317 -0.208,-0.595 -0.619,-0.826c-0.608,-0.342 -1.099,-0.383 -1.53,-0.137c-0.137,0.078 -0.263,0.156 -0.38,0.233l-0.057,0.048c-1.12,1.158 -2.291,2.677 -3.48,4.517c-1.18,1.824 -2.343,3.869 -3.457,6.077c-1.111,2.204 -2.168,4.459 -3.142,6.701c-0.976,2.247 -1.837,4.409 -2.559,6.427c-0.708,1.978 -1.271,3.719 -1.676,5.179c-1.442,1.458 -2.143,2.714 -2.143,3.838c-0,0.978 0.487,1.751 1.449,2.295c0.9,0.508 2.02,0.765 3.33,0.765c0.911,-0 1.891,-0.134 2.915,-0.399c1.013,-0.263 2.025,-0.645 3.013,-1.137c2.211,-1.162 4.14,-2.73 5.734,-4.662c1.531,-1.855 2.568,-3.698 3.083,-5.48c0.224,-0.021 0.546,-0.039 0.962,-0.053c0.599,-0.018 1.075,-0.046 1.432,-0.087" style="fill:#72b262;fill-rule:nonzero;"/><path d="M130.934,16.042c0.261,-0 0.544,-0.112 0.865,-0.341l0.031,-0.025c0.791,-0.719 1.535,-1.38 2.212,-1.963c0.666,-0.573 1.295,-1.119 1.887,-1.638l0.002,-0.002c0.408,-0.362 0.615,-0.747 0.615,-1.144c-0,-0.353 -0.135,-0.661 -0.392,-0.892c-0.249,-0.224 -0.55,-0.337 -0.894,-0.337c-0.397,-0 -0.781,0.206 -1.147,0.618l-3.698,4.307c-0.214,0.214 -0.323,0.444 -0.323,0.686c-0,0.353 0.221,0.731 0.842,0.731" style="fill:#72b262;fill-rule:nonzero;"/><path d="M129.492,21.644c0.367,-0 0.622,0.087 0.756,0.257c0.156,0.199 0.232,0.457 0.232,0.787c-0,1.107 -0.38,2.216 -1.131,3.299c-0.765,1.102 -1.757,2.031 -2.948,2.759c-1.178,0.721 -2.452,1.087 -3.786,1.087c-0.218,-0 -0.422,-0.009 -0.608,-0.026c-0.051,-0.005 -0.101,-0.01 -0.151,-0.016c0.217,-0.571 0.527,-1.244 0.924,-2.009c0.489,-0.941 1.095,-1.906 1.802,-2.867c0.697,-0.947 1.484,-1.743 2.338,-2.366c0.825,-0.601 1.69,-0.905 2.572,-0.905m6.323,5.582c-0.421,-0 -0.754,0.194 -0.952,0.543c-0.764,1.164 -1.415,2.121 -1.933,2.844c-0.51,0.709 -1.007,1.345 -1.478,1.889c-0.476,0.549 -1.068,1.177 -1.759,1.868c-0.675,0.675 -1.525,1.29 -2.526,1.826c-0.98,0.525 -2.008,0.792 -3.055,0.792c-1.21,-0 -1.992,-0.343 -2.392,-1.048c-0.43,-0.755 -0.649,-1.594 -0.649,-2.492c-0,-0.469 0.033,-0.897 0.097,-1.278c0.121,0.016 0.243,0.028 0.364,0.038c0.225,0.019 0.459,0.029 0.694,0.029c1.865,-0 3.64,-0.482 5.275,-1.433c1.626,-0.944 2.969,-2.173 3.992,-3.65c1.034,-1.494 1.558,-3.071 1.558,-4.688c-0,-0.908 -0.325,-1.673 -0.968,-2.275c-0.637,-0.595 -1.49,-0.896 -2.536,-0.896c-1.547,-0 -3.016,0.518 -4.366,1.539c-1.319,0.998 -2.493,2.268 -3.49,3.772c-0.745,1.124 -1.375,2.278 -1.88,3.443c-0.514,0.754 -0.946,1.399 -1.282,1.911c-0.344,0.525 -0.693,1.011 -1.036,1.444c-0.356,0.449 -0.809,0.986 -1.36,1.611c-0.246,0.315 -0.612,0.681 -1.089,1.087c-0.483,0.412 -0.984,0.785 -1.493,1.113c-0.826,0.55 -1.508,0.83 -2.029,0.83c-0.731,-0 -1.044,-0.346 -1.044,-1.155c-0,-0.168 0.018,-0.365 0.052,-0.587c0.031,-0.208 0.098,-0.432 0.207,-0.688c0.357,-1.038 0.959,-2.166 1.787,-3.355c0.839,-1.203 1.74,-2.42 2.679,-3.617c0.937,-1.194 1.752,-2.281 2.423,-3.23c0.714,-1.012 1.061,-1.793 1.061,-2.389c-0,-0.626 -0.166,-1.072 -0.495,-1.326c-0.516,-0.395 -1.263,-0.418 -2.165,-0.229c-0.364,0.077 -0.722,0.174 -1.043,0.281c-0.741,0.196 -1.784,0.688 -3.19,1.505c-1.374,0.799 -2.869,1.805 -4.443,2.99c-1.059,0.797 -2.08,1.659 -3.051,2.577c0.567,-1.367 0.854,-2.547 0.854,-3.524c-0,-0.808 -0.217,-1.527 -0.644,-2.138c-0.455,-0.649 -1.249,-0.978 -2.361,-0.978c-1.277,-0 -2.304,0.41 -3.052,1.22c-0.687,0.742 -1.356,1.533 -1.992,2.356c-0.23,0.308 -0.655,0.906 -1.227,1.729c-0.546,0.785 -1.176,1.712 -1.867,2.746c-0.617,0.861 -1.231,1.775 -1.83,2.731c-0.68,1.084 -1.412,2.149 -2.164,3.151c-0.186,0.223 -0.473,0.577 -0.863,1.059c-0.371,0.46 -0.783,0.871 -1.223,1.223c-0.38,0.304 -0.725,0.43 -1.007,0.379c-0.155,-0.039 -0.627,-0.156 -0.627,-1.331c-0,-0.736 0.162,-1.606 0.482,-2.584c0.328,-1.001 0.687,-1.941 1.068,-2.795c0.384,-0.857 0.649,-1.416 0.789,-1.662l0.035,-0.087c0.112,-0.447 -0.082,-0.84 -0.533,-1.079c-0.363,-0.192 -0.724,-0.289 -1.075,-0.289c-0.444,-0 -0.76,0.121 -0.939,0.359c-0.232,0.31 -0.455,0.648 -0.661,1.004c-0.196,0.339 -0.403,0.654 -0.615,0.937c-0.327,0.435 -0.844,1.064 -1.538,1.867c-0.695,0.805 -1.483,1.648 -2.34,2.506c-0.854,0.853 -1.697,1.577 -2.508,2.153c-0.768,0.547 -1.439,0.824 -1.992,0.824c-0.472,-0 -0.787,-0.13 -0.961,-0.399c-0.205,-0.315 -0.305,-0.689 -0.305,-1.144c-0,-0.7 0.135,-1.477 0.4,-2.308c0.273,-0.856 0.567,-1.637 0.874,-2.322c0.309,-0.692 0.499,-1.127 0.58,-1.325c0.576,-1.08 1.273,-2.16 2.07,-3.211c0.799,-1.053 1.609,-1.993 2.402,-2.787c0.641,-0.604 1.409,-1.146 2.283,-1.61c1.58,-0.838 3.094,-0.917 4.377,-0.148c0.542,0.326 0.805,0.91 0.805,1.787c-0,0.131 -0.009,0.266 -0.025,0.4c-0.019,0.141 -0.045,0.3 -0.083,0.494c-0.032,0.222 -0.105,0.448 -0.216,0.671c-0.138,0.275 -0.249,0.556 -0.329,0.836c-0.074,0.258 -0.084,0.657 0.291,1.094c0.289,0.337 0.619,0.508 0.982,0.508c0.299,-0 0.724,-0.139 1.055,-0.8c0.212,-0.426 0.398,-0.933 0.551,-1.505c0.118,-0.434 0.178,-0.856 0.178,-1.255c-0,-1.145 -0.398,-2.233 -1.182,-3.234c-0.805,-1.025 -2.165,-1.545 -4.041,-1.545c-1.079,-0 -2.163,0.243 -3.22,0.724c-1.044,0.475 -2.071,1.155 -3.047,2.019c-0.973,0.824 -1.895,1.793 -2.739,2.88c-0.838,1.081 -1.602,2.213 -2.277,3.374c-0.088,0.163 -0.187,0.358 -0.295,0.585c-0.763,1.152 -1.458,2.174 -2.068,3.042c-0.694,0.986 -1.387,1.882 -2.06,2.664c-0.675,0.785 -1.459,1.587 -2.311,2.369c-0.353,0.282 -0.721,0.534 -1.093,0.746c-0.334,0.191 -0.622,0.288 -0.856,0.288c-0.213,-0 -0.711,-0 -0.711,-1.155c-0,-0.544 0.131,-1.134 0.389,-1.754c0.274,-0.658 0.485,-1.172 0.634,-1.542c0.506,-0.976 1.112,-1.986 1.802,-3.001c0.695,-1.025 1.399,-1.988 2.092,-2.864c0.687,-0.868 1.291,-1.546 1.781,-2.001c0.299,-0.249 0.456,-0.57 0.456,-0.929c-0,-0.278 -0.117,-0.537 -0.35,-0.769c-0.232,-0.233 -0.509,-0.35 -0.824,-0.35c-0.335,-0 -0.817,0.203 -1.566,0.66c-0.607,0.372 -1.386,0.56 -2.317,0.56c-0.235,-0 -0.623,-0.054 -1.153,-0.16c-0.254,-0.051 -0.556,-0.149 -0.556,-0.329c-0,-0.351 0.118,-0.767 0.352,-1.234c0.259,-0.519 0.509,-1.028 0.751,-1.529c0.265,-0.552 0.394,-1.009 0.394,-1.397c-0,-0.402 -0.191,-0.762 -0.57,-1.07c-0.358,-0.291 -0.729,-0.437 -1.103,-0.437c-0.41,-0 -0.78,0.127 -1.099,0.378c-0.294,0.231 -0.528,0.497 -0.696,0.793l-0.021,0.043c-0.147,0.328 -0.302,0.676 -0.466,1.04c-0.166,0.37 -0.324,0.722 -0.471,1.054c-0.473,1.055 -1.111,2.266 -1.896,3.599c-0.792,1.343 -1.609,2.644 -2.43,3.866c-0.82,1.221 -1.518,2.235 -2.07,3.008c-0.155,0.208 -0.234,0.445 -0.234,0.704c-0,0.676 0.428,1.064 1.174,1.064c0.281,-0 0.692,-0.101 1.046,-0.574c1.374,-1.747 2.522,-3.432 3.412,-5.008c0.728,-1.288 1.322,-2.289 1.772,-2.987c0.417,0.467 1.009,0.859 1.766,1.167c0.666,0.272 1.28,0.44 1.834,0.502c-0.302,0.431 -0.68,0.994 -1.132,1.683c-0.672,1.028 -1.313,2.15 -1.9,3.325c-0.266,0.495 -0.554,1.173 -0.853,2.016c-0.308,0.864 -0.464,1.714 -0.464,2.528c-0,1.059 0.291,1.854 0.864,2.364c0.561,0.499 1.244,0.752 2.03,0.752c1.334,-0 2.64,-0.531 3.871,-1.57c0.678,-0.527 1.468,-1.298 2.348,-2.289c0.164,-0.185 0.327,-0.375 0.49,-0.565c-0.002,0.066 -0.008,0.133 -0.008,0.199c-0,0.994 0.254,1.854 0.757,2.556c0.527,0.74 1.47,1.114 2.802,1.114c0.684,-0 1.459,-0.238 2.302,-0.709c0.808,-0.451 1.636,-1.012 2.459,-1.667c0.82,-0.652 1.573,-1.302 2.241,-1.932c0.375,-0.355 0.695,-0.671 0.964,-0.954c-0.05,0.226 -0.1,0.467 -0.149,0.723c-0.115,0.593 -0.173,1.165 -0.173,1.701c-0,0.67 0.222,1.284 0.659,1.823c0.46,0.571 1.264,0.849 2.457,0.849c1.235,-0 2.268,-0.407 3.071,-1.21c0.745,-0.745 1.427,-1.522 2.027,-2.308c0.597,-0.785 1.243,-1.665 1.92,-2.616c0.172,-0.242 0.338,-0.478 0.498,-0.709c0.414,-0.544 0.79,-1.063 1.115,-1.545c0.534,-0.792 1.068,-1.616 1.588,-2.45c0.511,-0.823 1.14,-1.738 1.868,-2.721c0.223,-0.297 0.502,-0.678 0.836,-1.142c0.317,-0.44 0.682,-0.84 1.084,-1.19c0.359,-0.312 0.722,-0.47 1.079,-0.47c0.223,-0 0.256,0.073 0.27,0.103c0.073,0.162 0.108,0.324 0.108,0.497c-0,0.693 -0.226,1.641 -0.671,2.818c-0.457,1.205 -1.013,2.513 -1.654,3.886c-0.639,1.37 -1.291,2.72 -1.937,4.013c-0.65,1.301 -1.184,2.405 -1.581,3.272c-0.134,0.269 -0.202,0.582 -0.202,0.93c-0,0.183 0.067,0.523 0.522,0.75c0.269,0.135 0.526,0.203 0.763,0.203c0.438,-0 0.821,-0.201 1.106,-0.581l0.017,-0.024c0.19,-0.305 0.365,-0.625 0.518,-0.951c0.142,-0.3 0.303,-0.596 0.479,-0.877l2.216,-3.492c0.797,-1.23 1.893,-2.566 3.258,-3.968c1.37,-1.406 2.887,-2.728 4.507,-3.929c1.613,-1.197 3.184,-2.116 4.659,-2.728c0.255,-0.096 0.475,-0.144 0.655,-0.144c0.227,-0 0.308,0.047 0.318,0.06c-0,-0 0.005,0.01 0.005,0.041c-0,0.013 -0.003,0.052 -0.03,0.122c-0.029,0.069 -0.074,0.151 -0.134,0.242c-0.292,0.437 -0.836,1.157 -1.619,2.14c-0.79,0.992 -1.651,2.124 -2.56,3.367c-0.913,1.248 -1.706,2.513 -2.357,3.759c-0.669,1.282 -1.009,2.446 -1.009,3.459c-0,0.703 0.239,1.37 0.708,1.983c0.491,0.641 1.283,0.966 2.352,0.966c0.616,-0 1.258,-0.078 1.909,-0.231c0.655,-0.153 1.301,-0.408 1.925,-0.759c0.643,-0.377 1.285,-0.837 1.906,-1.365c0.62,-0.525 1.146,-1.042 1.567,-1.54c0.121,-0.144 0.298,-0.363 0.52,-0.641c0.08,1.367 0.474,2.589 1.179,3.636c0.821,1.223 2.269,1.843 4.305,1.843c1.944,-0 3.715,-0.513 5.262,-1.526c1.521,-0.994 2.92,-2.288 4.158,-3.844c1.223,-1.539 2.352,-3.185 3.345,-4.877c0.111,-0.168 0.168,-0.381 0.168,-0.633c-0,-0.747 -0.408,-1.175 -1.119,-1.175" style="fill:#72b262;fill-rule:nonzero;"/><path d="M34.778,30.725c-1.891,4.277 -4.518,6.169 -5.86,7.139c-2.248,1.625 -8.552,3.483 -13.646,0.577c-6.532,-3.726 -9.261,-9.077 -9.585,-14.678c-0.461,-7.965 7.053,-10.172 7.053,-10.172c0,0 2.336,0.336 2.924,0.439c0.773,0.136 3.032,0.139 3.583,0.816c0.754,0.928 0.868,1.425 1.71,1.385c1.193,-0.058 1.28,-0.369 1.547,-1.493c0.247,-1.042 0.368,-1.654 0.465,-3.299c0.08,-1.355 2.432,-2.284 7.036,0.15c7.546,3.99 7.041,14.006 4.773,19.136m-30.121,-26.032c-0.402,-0.603 -0.141,-0.954 0.57,-0.814c3.185,0.625 10.336,2.751 13.656,8.023c0.133,0.211 -0.013,0.49 -0.262,0.504c-1.859,0.105 -9.037,-0.336 -13.964,-7.713m6.585,-1.822c6.691,0.375 8.49,4.752 8.956,6.632c0.049,0.199 -0.206,0.326 -0.334,0.166c-2.064,-2.565 -6.816,-5.611 -8.712,-6.494c-0.167,-0.078 -0.093,-0.314 0.09,-0.304m25.551,11.972c-3.426,-7.488 -11.548,-7.097 -11.548,-7.097c0,0 0.217,-0.271 0.489,-0.597c1.791,-2.497 6.243,-4.614 7.708,-5.103c0.761,-0.253 0.91,-0.527 0.515,-1.307c-0.505,-0.997 -0.982,-0.749 -1.817,-0.593c-5.375,1.086 -9.935,7.003 -9.935,7.003c0,0 -0.38,0.652 -0.38,0.543c-0.76,-3.257 -3.787,-5.721 -8.456,-6.806c-4.668,-1.086 -8.901,0.308 -12.172,-0.088c-1.78,-0.215 -1.249,2.226 -0.489,2.551c0.76,0.326 1.303,0.326 3.094,3.746c1.792,3.42 6.08,5.103 6.08,5.103c0,0 -4.398,1.095 -6.269,6.394c-2.167,6.134 1.841,12.947 2.717,14.297c1.637,2.518 5.371,6.82 10.338,8.461c5.757,1.9 12.481,-0.159 16.076,-3.643c2.588,-2.509 3.902,-5.773 4.807,-8.583c2.129,-6.607 0.593,-11.327 -0.758,-14.281" style="fill:#72b262;fill-rule:nonzero;"/></svg>